<svg xmlns="http://www.w3.org/2000/svg" xmlns:xlink="http://www.w3.org/1999/xlink" viewBox="0 0 1440 368" width="1440" height="368" preserveAspectRatio="xMidYMid meet" style="width: 100%; height: 100%; transform: translate3d(0px, 0px, 0px); content-visibility: visible;"><defs><clipPath id="__lottie_element_31"><rect width="1440" height="368" x="0" y="0"></rect></clipPath></defs><g clip-path="url(#__lottie_element_31)"><g transform="matrix(1,0,0,1,15,14)" opacity="1" style="display: block;"><g opacity="1" transform="matrix(1,0,0,1,191.99000549316406,169.94500732421875)"><path fill="rgb(20,20,20)" fill-opacity="1" d=" M191.99000549316406,-15.57800006866455 C191.99000549316406,-15.57800006866455 92.06999969482422,-170.05499267578125 92.06999969482422,-170.05499267578125 C92.06999969482422,-170.05499267578125 -191.99000549316406,15.57800006866455 -191.99000549316406,15.57800006866455 C-191.99000549316406,15.57800006866455 -92.32099914550781,169.05499267578125 -92.32099914550781,169.05499267578125 C-92.32099914550781,169.05499267578125 191.99000549316406,-15.57800006866455 191.99000549316406,-15.57800006866455z"></path></g></g><g transform="matrix(1,0,0,1,299,14)" opacity="1" style="display: block;"><g opacity="1" transform="matrix(1,0,0,1,91.5,170)"><path fill="rgb(20,20,20)" fill-opacity="1" d=" M91.5,-170 C91.5,-170 -91.5,-170 -91.5,-170 C-91.5,-170 -91.5,170 -91.5,170 C-91.5,170 91.5,170 91.5,170 C91.5,170 91.5,-170 91.5,-170z"></path></g></g><g transform="matrix(1,0,0,1,496,14)" opacity="1" style="display: block;"><g opacity="1" transform="matrix(1,0,0,1,91.5,170)"><path fill="rgb(20,20,20)" fill-opacity="1" d=" M91.5,-170 C91.5,-170 -91.5,-170 -91.5,-170 C-91.5,-170 -91.5,170 -91.5,170 C-91.5,170 91.5,170 91.5,170 C91.5,170 91.5,-170 91.5,-170z"></path></g></g><g transform="matrix(1,0,0,1,693,14)" opacity="1" style="display: block;"><g opacity="1" transform="matrix(1,0,0,1,91.5,170)"><path fill="rgb(20,20,20)" fill-opacity="1" d=" M91.5,-170 C91.5,-170 -91.5,-170 -91.5,-170 C-91.5,-170 -91.5,170 -91.5,170 C-91.5,170 91.5,170 91.5,170 C91.5,170 91.5,-170 91.5,-170z"></path></g></g><g transform="matrix(1,0,0,1,777.125,13.25)" opacity="1" style="display: block;"><g opacity="1" transform="matrix(1,0,0,1,191.14999389648438,169.49000549316406)"><path fill="rgb(20,20,20)" fill-opacity="1" d=" M-192.14999389648438,-15.282999992370605 C-192.14999389648438,-15.282999992370605 -92.48200225830078,-168.75999450683594 -92.48200225830078,-168.75999450683594 C-92.48200225830078,-168.75999450683594 190.14999389648438,14.782999992370605 190.14999389648438,14.782999992370605 C190.14999389648438,14.782999992370605 90.48100280761719,168.25999450683594 90.48100280761719,168.25999450683594 C90.48100280761719,168.25999450683594 -192.14999389648438,-15.282999992370605 -192.14999389648438,-15.282999992370605z"></path></g></g><g transform="matrix(1,0,0,1,1242,14)" opacity="1" style="display: block;"><g opacity="1" transform="matrix(1,0,0,1,91.5,170)"><path fill="rgb(20,20,20)" fill-opacity="1" d=" M91.5,-170 C91.5,-170 -91.5,-170 -91.5,-170 C-91.5,-170 -91.5,170 -91.5,170 C-91.5,170 91.5,170 91.5,170 C91.5,170 91.5,-170 91.5,-170z"></path></g></g><g transform="matrix(1,0,0,1,1448,14)" opacity="1" style="display: block;"><g opacity="1" transform="matrix(1,0,0,1,91.5,170)"><path fill="rgb(20,20,20)" fill-opacity="1" d=" M91.5,-170 C91.5,-170 -91.5,-170 -91.5,-170 C-91.5,-170 -91.5,170 -91.5,170 C-91.5,170 91.5,170 91.5,170 C91.5,170 91.5,-170 91.5,-170z"></path></g></g><g transform="matrix(1,0,0,1,960,13.25)" opacity="1" style="display: block;"><g opacity="1" transform="matrix(1,0,0,1,191.14999389648438,169.49000549316406)"><path fill="rgb(20,20,20)" fill-opacity="1" d=" M190.52499389648438,-15.532999992370605 C190.52499389648438,-15.532999992370605 90.23100280761719,-169.00999450683594 90.23100280761719,-169.00999450683594 C90.23100280761719,-169.00999450683594 -191.77499389648438,14.532999992370605 -191.77499389648438,14.532999992370605 C-191.77499389648438,14.532999992370605 -91.98200225830078,168.38499450683594 -91.98200225830078,168.38499450683594 C-91.98200225830078,168.38499450683594 190.52499389648438,-15.532999992370605 190.52499389648438,-15.532999992370605z"></path></g></g><g transform="matrix(0.5446390509605408,-0.838670551776886,0.838670551776886,0.5446390509605408,-140.72535705566406,252.20843505859375)" opacity="1" style="display: none;"><g opacity="1" transform="matrix(1,0,0,1,191.99000549316406,169.94500732421875)"><path fill="rgb(20,20,20)" fill-opacity="1" d=" M191.99000549316406,-15.57800006866455 C191.99000549316406,-15.57800006866455 92.31999969482422,-169.05499267578125 92.31999969482422,-169.05499267578125 C92.31999969482422,-169.05499267578125 -191.99000549316406,15.57800006866455 -191.99000549316406,15.57800006866455 C-191.99000549316406,15.57800006866455 -92.32099914550781,169.05499267578125 -92.32099914550781,169.05499267578125 C-92.32099914550781,169.05499267578125 191.99000549316406,-15.57800006866455 191.99000549316406,-15.57800006866455z"></path></g></g><g transform="matrix(1,0,0,1,211.5,14)" opacity="1" style="display: none;"><g opacity="1" transform="matrix(1,0,0,1,91.5,170)"><path fill="rgb(20,20,20)" fill-opacity="1" d=" M91.5,-170 C91.5,-170 -91.5,-170 -91.5,-170 C-91.5,-170 -91.5,170 -91.5,170 C-91.5,170 91.5,170 91.5,170 C91.5,170 91.5,-170 91.5,-170z"></path></g></g><g transform="matrix(1,0,0,1,408.5,14)" opacity="1" style="display: none;"><g opacity="1" transform="matrix(1,0,0,1,91.5,170)"><path fill="rgb(20,20,20)" fill-opacity="1" d=" M91.5,-170 C91.5,-170 -91.5,-170 -91.5,-170 C-91.5,-170 -91.5,170 -91.5,170 C-91.5,170 91.5,170 91.5,170 C91.5,170 91.5,-170 91.5,-170z"></path></g></g><g transform="matrix(1,0,0,1,605.125,14)" opacity="1" style="display: none;"><g opacity="1" transform="matrix(1,0,0,1,91.5,170)"><path fill="rgb(20,20,20)" fill-opacity="1" d=" M91.5,-170 C91.5,-170 -91.5,-170 -91.5,-170 C-91.5,-170 -91.5,170 -91.5,170 C-91.5,170 91.5,170 91.5,170 C91.5,170 91.5,-170 91.5,-170z"></path></g></g><g transform="matrix(0.5446390509605408,0.838670551776886,-0.838670551776886,0.5446390509605408,931.0619506835938,-70.3994140625)" opacity="1" style="display: none;"><g opacity="1" transform="matrix(1,0,0,1,191.14999389648438,169.49000549316406)"><path fill="rgb(20,20,20)" fill-opacity="1" d=" M-191.14999389648438,-15.032999992370605 C-191.14999389648438,-15.032999992370605 -91.48200225830078,-168.50999450683594 -91.48200225830078,-168.50999450683594 C-91.48200225830078,-168.50999450683594 193.91000366210938,16.750999450683594 193.91000366210938,16.750999450683594 C193.91000366210938,16.750999450683594 94.24099731445312,170.22799682617188 94.24099731445312,170.22799682617188 C94.24099731445312,170.22799682617188 -191.14999389648438,-15.032999992370605 -191.14999389648438,-15.032999992370605z"></path></g></g><g transform="matrix(0.5446390509605408,-0.838670551776886,0.838670551776886,0.5446390509605408,843.46630859375,250.81141662597656)" opacity="1" style="display: none;"><g opacity="1" transform="matrix(1,0,0,1,191.14999389648438,169.49000549316406)"><path fill="rgb(20,20,20)" fill-opacity="1" d=" M191.14999389648438,-15.032999992370605 C191.14999389648438,-15.032999992370605 91.48100280761719,-168.50999450683594 91.48100280761719,-168.50999450683594 C91.48100280761719,-168.50999450683594 -192.8459930419922,16.0939998626709 -192.8459930419922,16.0939998626709 C-192.8459930419922,16.0939998626709 -93.177001953125,169.5709991455078 -93.177001953125,169.5709991455078 C-93.177001953125,169.5709991455078 191.14999389648438,-15.032999992370605 191.14999389648438,-15.032999992370605z"></path></g></g><g transform="matrix(1,0,0,1,1196,14)" opacity="1" style="display: none;"><g opacity="1" transform="matrix(1,0,0,1,91.5,170)"><path fill="rgb(20,20,20)" fill-opacity="1" d=" M91.5,-170 C91.5,-170 -91.5,-170 -91.5,-170 C-91.5,-170 -91.5,170 -91.5,170 C-91.5,170 91.5,170 91.5,170 C91.5,170 91.5,-170 91.5,-170z"></path></g></g><g transform="matrix(1,0,0,1,1392,14)" opacity="1" style="display: none;"><g opacity="1" transform="matrix(1,0,0,1,91.5,170)"><path fill="rgb(20,20,20)" fill-opacity="1" d=" M91.5,-170 C91.5,-170 -91.5,-170 -91.5,-170 C-91.5,-170 -91.5,170 -91.5,170 C-91.5,170 91.5,170 91.5,170 C91.5,170 91.5,-170 91.5,-170z"></path></g></g></g></svg>