<svg width="100%" height="100%" viewBox="0 0 1412 1007" fill="none" xmlns="http://www.w3.org/2000/svg">
<path d="M105 0H0V1007H105V0Z" fill="currentColor"></path>
<path d="M224 0H119V1007H224V0Z" fill="currentColor"></path>
<path d="M343 0H238V1007H343V0Z" fill="currentColor"></path>
<path d="M462 0H357V1007H462V0Z" fill="currentColor"></path>
<path d="M580 0H475V1007H580V0Z" fill="currentColor"></path>
<path d="M699 0H594V1007H699V0Z" fill="currentColor"></path>
<path d="M818 0H713V1007H818V0Z" fill="currentColor"></path>
<path d="M937 0H832V1007H937V0Z" fill="currentColor"></path>
<path d="M1056 0H951V1007H1056V0Z" fill="currentColor"></path>
<path d="M1175 0H1070V1007H1175V0Z" fill="currentColor"></path>
<path d="M1293 0H1188V1007H1293V0Z" fill="currentColor"></path>
<path d="M1412 0H1307V1007H1412V0Z" fill="currentColor"></path>
</svg>