<svg xmlns="http://www.w3.org/2000/svg" height="auto" fill="none" viewBox="0 0 231 27"><path fill="currentColor" fill-rule="evenodd" d="M33.571 1.4h8.994v22.164h-8.994V1.4ZM43.965 0H32.171v24.964h11.794V0Zm56.03 10.5L103.82 0h2.28l3.855 10.5h-1.92l-.885-2.52h-4.38l-.885 2.52h-1.89Zm6.645-3.96-1.68-4.8-1.68 4.8h3.36Zm62.096 3.96h-1.755V2.94h1.755v7.56Zm-1.815-8.685V0h1.875v1.815h-1.875Zm12.127 8.685h-1.74V2.94h1.74v1.08c.45-.855 1.35-1.275 2.265-1.275.99 0 1.785.585 2.04 1.5.45-.915 1.335-1.5 2.49-1.5 1.605 0 2.52 1.065 2.52 2.82V10.5h-1.755V5.895c0-1.095-.465-1.695-1.335-1.695-1.005 0-1.575.81-1.575 1.935V10.5h-1.74V5.895c0-1.095-.48-1.695-1.35-1.695-.885 0-1.56.81-1.56 1.935V10.5Zm-78.663 8.75c0 3.315 2.04 5.445 5.025 5.445 3 0 5.025-2.13 5.025-5.445 0-3.33-2.025-5.445-5.025-5.445-2.985 0-5.025 2.1-5.025 5.445Zm5.025 3.885c-1.95 0-3.135-1.545-3.135-3.885 0-2.37 1.185-3.885 3.135-3.885 1.965 0 3.135 1.515 3.135 3.885 0 2.34-1.17 3.885-3.135 3.885Zm6.844 1.365v-6.225h-1.275V16.94h.9c.24 0 .375-.135.375-.375V16.1c0-1.335.66-2.1 2.04-2.1h1.605v1.35h-1.095c-.585 0-.81.285-.81.87v.72h1.785v1.335h-1.785V24.5h-1.74Zm9.17-10.5h-1.815v10.5h1.815v-2.85l1.74-1.92 3.285 4.77h2.145l-4.215-6.12 3.975-4.38h-2.235l-4.695 5.295V14Zm9.583 10.5h-1.74V14h1.74v4.185c.51-.93 1.425-1.44 2.505-1.44 1.59 0 2.595 1.035 2.595 3.015v4.74h-1.74v-4.53c0-1.14-.63-1.77-1.53-1.77-1.035 0-1.83.9-1.83 2.07v4.23ZM152.314 14h-1.74v10.5h1.74v-2.175l1.185-1.26 2.25 3.435h2.025l-3.12-4.665 2.64-2.895h-2.055l-2.925 3.285V14Zm6.002 10.5v-7.56h1.755v7.56h-1.755Zm-.06-8.685V14h1.875v1.815h-1.875Zm14.022 11.175V14h3.765v1.38h-2.115v10.245h2.115v1.365h-3.765Zm4.952-6.405c0 2.745 1.665 4.11 4.2 4.11 2.52 0 4.155-1.365 4.155-4.11V14h-1.845v6.525c0 1.845-.975 2.61-2.31 2.61-1.35 0-2.355-.765-2.355-2.61V14h-1.845v6.585Zm11.619 3.915h-1.74V14h1.74v6.225l2.925-3.285h2.055l-2.64 2.895 3.12 4.665h-2.025l-2.25-3.435-1.185 1.26V24.5Zm18.864-7.56v7.56h1.755v-7.56h-1.755Zm-.06-2.94v1.815h1.875V14h-1.875Zm18.912 11.625v1.365h3.765V14h-3.765v1.38h2.13v10.245h-2.13Zm-7.832-4.905c0 2.28 1.425 3.975 3.675 3.975 1.98 0 3.15-1.125 3.39-2.565h-1.71c-.24.78-.81 1.2-1.665 1.2-1.26 0-1.845-.93-1.95-2.175h5.415c.12-3.27-1.5-4.41-3.48-4.41-2.25 0-3.675 1.71-3.675 3.975Zm5.445-.735h-3.675c.165-1.065.75-1.89 1.905-1.89 1.05 0 1.68.57 1.77 1.89ZM210.869 24.5v-7.56h1.74v1.14c.51-.855 1.485-1.335 2.505-1.335 1.695 0 2.7 1.095 2.7 3.015v4.74h-1.74v-4.53c0-1.14-.63-1.77-1.59-1.77-1.065 0-1.875.87-1.875 2.04v4.26h-1.74Zm-9.049.195c-1.485 0-2.445-.87-2.445-2.19 0-1.77 1.53-2.19 2.805-2.4l1.455-.21c.555-.09.69-.375.69-.72 0-.615-.42-1.11-1.35-1.11-.9 0-1.485.42-1.59 1.245h-1.74c.21-1.68 1.545-2.565 3.345-2.565 2.04 0 3.06.975 3.06 2.805v3.24c0 .21.15.345.36.345h.405V24.5h-1.11c-.765 0-1.245-.375-1.245-.96v-.165c-.66.96-1.65 1.32-2.64 1.32Zm-.675-2.37c0 .675.495 1.05 1.245 1.05 1.2 0 1.935-.99 1.935-2.235v-.405c-.212.113-.41.16-.645.215l-.045.01-1.125.195c-.945.165-1.365.525-1.365 1.17Zm-6.324-5.385v7.56h1.74v-3.66c0-1.44.63-2.25 1.92-2.25h.585v-1.65h-.405c-.96 0-1.665.375-2.1 1.29v-1.29h-1.74Zm-34.024 0 2.76 7.56h2.085l2.76-7.56h-1.89l-1.92 5.775-1.92-5.775h-1.875Zm-15.432 7.56v-7.56h1.74v1.29c.435-.915 1.14-1.29 2.1-1.29h.405v1.65h-.585c-1.29 0-1.92.81-1.92 2.25v3.66h-1.74Zm-8.307-1.995c0 1.32.96 2.19 2.445 2.19.99 0 1.98-.36 2.64-1.32v.165c0 .585.48.96 1.245.96h1.11v-1.365h-.405c-.21 0-.36-.135-.36-.345v-3.24c0-1.83-1.02-2.805-3.06-2.805-1.8 0-3.135.885-3.345 2.565h1.74c.105-.825.69-1.245 1.59-1.245.93 0 1.35.495 1.35 1.11 0 .345-.135.63-.69.72l-1.455.21c-1.275.21-2.805.63-2.805 2.4Zm3.015.87c-.75 0-1.245-.375-1.245-1.05 0-.645.42-1.005 1.365-1.17l1.125-.195.044-.01c.236-.055.434-.102.646-.215v.405c0 1.245-.735 2.235-1.935 2.235ZM169.672 8.13c.12 1.575 1.35 2.565 3.42 2.565 1.845 0 3.21-.885 3.21-2.4 0-1.38-1.095-1.965-2.115-2.16l-1.62-.315c-.525-.105-.945-.345-.945-.855 0-.525.54-.9 1.32-.9.84 0 1.365.375 1.485 1.08h1.74c-.15-1.65-1.41-2.4-3.195-2.4-1.815 0-3.09.93-3.09 2.31 0 1.35 1.05 1.905 2.16 2.145l1.515.3c.63.135.975.435.975.9 0 .585-.54.96-1.395.96-.975 0-1.56-.39-1.71-1.23h-1.755Zm-9.251-5.19h-1.74v7.56h1.74V6.24c0-1.17.81-2.04 1.875-2.04.96 0 1.59.63 1.59 1.77v4.53h1.74V5.76c0-1.92-1.005-3.015-2.7-3.015-1.02 0-1.995.48-2.505 1.335V2.94Zm-5.164 7.56h-1.74V2.94h1.74v1.29c.435-.915 1.14-1.29 2.1-1.29h.405v1.65h-.585c-1.29 0-1.92.81-1.92 2.25v3.66Zm-9.887-3.78c0 2.28 1.425 3.975 3.675 3.975 1.98 0 3.15-1.125 3.39-2.565h-1.71c-.24.78-.81 1.2-1.665 1.2-1.26 0-1.845-.93-1.95-2.175h5.415c.12-3.27-1.5-4.41-3.48-4.41-2.25 0-3.675 1.71-3.675 3.975Zm5.445-.735h-3.675c.165-1.065.75-1.89 1.905-1.89 1.05 0 1.68.57 1.77 1.89Zm-10.681 4.71c-1.68 0-3.165-1.5-3.165-4.005 0-2.475 1.485-3.945 3.165-3.945 1.035 0 1.935.45 2.475 1.275V0h1.74v10.5h-1.74V9.405c-.6.885-1.44 1.29-2.475 1.29Zm-1.38-4.005c0 1.47.705 2.565 1.95 2.565s1.965-1.095 1.965-2.55c0-1.455-.72-2.52-1.965-2.52s-1.95 1.05-1.95 2.505Zm-9.776.03c0 2.28 1.365 3.975 3.72 3.975 2.355 0 3.705-1.695 3.705-3.975 0-2.265-1.35-3.975-3.705-3.975s-3.72 1.71-3.72 3.975Zm3.72 2.565c-1.395 0-1.935-1.215-1.935-2.58 0-1.35.54-2.55 1.935-2.55s1.935 1.2 1.935 2.55c0 1.365-.54 2.58-1.935 2.58ZM117.09 10.5V0h2.58l2.82 8.295L125.265 0h2.565v10.5h-1.695V2.34l-2.82 8.16h-1.665l-2.85-8.115V10.5h-1.71ZM110.79 0v10.5h1.815V0h-1.815ZM19.395 17.047V25h11.794V.036H19.395v.04L1.088 14.886 0 15.767l.88 1.088 5.657 6.993.881 1.088 1.088-.88 9.489-7.677 1.4-1.133v1.801Zm-11.77 5.92 10.89-8.809 2.28-1.845V23.6h8.994V1.436h-9.85L1.97 15.975l5.657 6.992ZM56.678 0l.021.017 12.016 9.71L80.724.01V0H92.516v24.964H80.723v-9.783l-1.4 1.133-10.032 8.116-.544.44-.042-.033-10.628-8.551-1.4-1.127v9.805H44.883V0h11.794ZM46.283 1.4h9.9l11.65 9.416.881.711.88-.712L81.232 1.4h9.885v22.164h-8.994V12.248l-2.28 1.845-11.099 8.979-11.19-9.003-2.277-1.833v11.328h-8.994V1.4Z" clip-rule="evenodd"/></svg>