<svg xmlns="http://www.w3.org/2000/svg" xmlns:xlink="http://www.w3.org/1999/xlink" viewBox="0 0 1440 860" width="1440" height="860" preserveAspectRatio="xMidYMid meet" style="width: 100%; height: 100%; transform: translate3d(0px, 0px, 0px); content-visibility: visible;"><defs><clipPath id="__lottie_element_5"><rect width="1440" height="860" x="0" y="0"></rect></clipPath></defs><g clip-path="url(#__lottie_element_5)"><g transform="matrix(1,0,0,1,598.3519897460938,240.11300659179688)" opacity="1" style="display: block;"><g opacity="1" transform="matrix(1,0,0,1,-207.8520050048828,-56.112998962402344)"><path fill="rgb(20,20,20)" fill-opacity="1" d=" M91.5,-170 C91.5,-170 -91.5,-170 -91.5,-170 C-91.5,-170 -91.5,170 -91.5,170 C-91.5,170 91.5,170 91.5,170 C91.5,170 91.5,-170 91.5,-170z"></path></g></g><g transform="matrix(0.5446390509605408,0.838670551776886,-0.838670551776886,0.5446390509605408,272.4044494628906,388.2076721191406)" opacity="1" style="display: block;"><g opacity="1" transform="matrix(1,0,0,1,-207.8520050048828,-56.112998962402344)"><path fill="rgb(20,20,20)" fill-opacity="1" d=" M91.5,-170 C91.5,-170 -91.5,-170 -91.5,-170 C-91.5,-170 -91.5,170 -91.5,170 C-91.5,170 91.5,170 91.5,170 C91.5,170 91.5,-170 91.5,-170z"></path></g></g><g transform="matrix(1,0,0,1,795.3519897460938,240.11300659179688)" opacity="1" style="display: block;"><g opacity="1" transform="matrix(1,0,0,1,-207.8520050048828,-56.112998962402344)"><path fill="rgb(20,20,20)" fill-opacity="1" d=" M91.5,-170 C91.5,-170 -91.5,-170 -91.5,-170 C-91.5,-170 -91.5,170 -91.5,170 C-91.5,170 91.5,170 91.5,170 C91.5,170 91.5,-170 91.5,-170z"></path></g></g><g transform="matrix(1,0,0,1,1542.35205078125,240.11300659179688)" opacity="1" style="display: block;"><g opacity="1" transform="matrix(1,0,0,1,-207.8520050048828,-56.112998962402344)"><path fill="rgb(20,20,20)" fill-opacity="1" d=" M91.5,-170 C91.5,-170 -91.5,-170 -91.5,-170 C-91.5,-170 -91.5,170 -91.5,170 C-91.5,170 91.5,170 91.5,170 C91.5,170 91.5,-170 91.5,-170z"></path></g></g><g transform="matrix(1,0,0,1,992.3519897460938,240.11300659179688)" opacity="1" style="display: block;"><g opacity="1" transform="matrix(1,0,0,1,-207.8520050048828,-56.112998962402344)"><path fill="rgb(20,20,20)" fill-opacity="1" d=" M91.5,-170 C91.5,-170 -91.5,-170 -91.5,-170 C-91.5,-170 -91.5,170 -91.5,170 C-91.5,170 91.5,170 91.5,170 C91.5,170 91.5,-170 91.5,-170z"></path></g></g><g transform="matrix(0.5475631952285767,-0.8367643356323242,0.8367643356323242,0.5475631952285767,1128.913330078125,40.45196533203125)" opacity="1" style="display: block;"><g opacity="1" transform="matrix(1,0,0,1,-207.8520050048828,-56.112998962402344)"><path fill="rgb(20,20,20)" fill-opacity="1" d=" M91.5,-170 C91.5,-170 -91.5,-170 -91.5,-170 C-91.5,-170 -90.73899841308594,170.24899291992188 -90.73899841308594,170.24899291992188 C-90.73899841308594,170.24899291992188 91.5,170 91.5,170 C91.5,170 91.5,-170 91.5,-170z"></path></g></g><g transform="matrix(0.5475631952285767,0.8367643356323242,-0.8367643356323242,0.5475631952285767,1217.7108154296875,388.2982177734375)" opacity="1" style="display: block;"><g opacity="1" transform="matrix(1,0,0,1,-207.8520050048828,-56.112998962402344)"><path fill="rgb(20,20,20)" fill-opacity="1" d=" M91.5,-170 C91.5,-170 -91.5,-170 -91.5,-170 C-91.5,-170 -91.5,170 -91.5,170 C-91.5,170 92.20500183105469,167.3249969482422 92.20500183105469,167.3249969482422 C92.20500183105469,167.3249969482422 91.5,-170 91.5,-170z"></path></g></g></g></svg>